<mxfile host="app.diagrams.net" modified="2023-10-19T14:50:00.715Z" agent="Mozilla/5.0 (Macintosh; Intel Mac OS X 10_15_7) AppleWebKit/537.36 (KHTML, like Gecko) Chrome/118.0.0.0 Safari/537.36" version="21.7.2" etag="kAdZu9cSjYuHDwr9ecfZ" type="github">
  <diagram name="第 1 页" id="WuMPUa0EjE00o2N8EFPT">
    <mxGraphModel>
      <root>
        <mxCell id="0" />
        <mxCell id="1" parent="0" />
      </root>
    </mxGraphModel>
  </diagram>
</mxfile>
